HIERARCHY
ROOT Hips
{
    OFFSET 0.000000 0.000000 0.000000
    CHANNELS 6 Xposition Yposition Zposition Zrotation Xrotation Yrotation
    JOINT Spine
    {
        OFFSET -0.000000 14.517291 0.000000
        CHANNELS 3 Zrotation Xrotation Yrotation
        JOINT Spine1
        {
            OFFSET -0.000000 37.558300 0.000000
            CHANNELS 3 Zrotation Xrotation Yrotation
            JOINT Neck
            {
                OFFSET -0.000000 37.404057 3.400369
                CHANNELS 3 Zrotation Xrotation Yrotation
                JOINT Head
                {
                    OFFSET -0.000000 24.785618 -3.540803
                    CHANNELS 3 Zrotation Xrotation Yrotation
                    End Site
                    {
                        OFFSET -0.000000 35.408028 0.000000
                    }
                }
            }
            JOINT LeftShoulder
            {
                OFFSET 6.992933 33.973492 -0.192664
                CHANNELS 3 Zrotation Xrotation Yrotation
                JOINT LeftArm
                {
                    OFFSET 21.527611 0.000000 0.000000
                    CHANNELS 3 Zrotation Xrotation Yrotation
                    JOINT LeftForeArm
                    {
                        OFFSET 56.353916 0.000000 0.000000
                        CHANNELS 3 Zrotation Xrotation Yrotation
                        JOINT LeftHand
                        {
                            OFFSET 47.774071 0.000000 0.000000
                            CHANNELS 3 Zrotation Xrotation Yrotation
                            End Site
                            {
                                OFFSET 26.556021 0.000000 0.000000
                            }
                        }
                    }
                }
            }
            JOINT RightShoulder
            {
                OFFSET -7.065357 33.973492 -0.192664
                CHANNELS 3 Zrotation Xrotation Yrotation
                JOINT RightArm
                {
                    OFFSET -21.527611 0.000000 0.000000
                    CHANNELS 3 Zrotation Xrotation Yrotation
                    JOINT RightForeArm
                    {
                        OFFSET -56.353916 0.000000 0.000000
                        CHANNELS 3 Zrotation Xrotation Yrotation
                        JOINT RightHand
                        {
                            OFFSET -47.774071 0.000000 0.000000
                            CHANNELS 3 Zrotation Xrotation Yrotation
                            End Site
                            {
                                OFFSET -26.556021 0.000000 0.000000
                            }
                        }
                    }
                }
            }
        }
    }
    JOINT LeftUpLeg
    {
        OFFSET 17.704014 0.000000 0.000000
        CHANNELS 3 Zrotation Xrotation Yrotation
        JOINT LeftLeg
        {
            OFFSET -0.000000 -81.181816 0.000000
            CHANNELS 3 Zrotation Xrotation Yrotation
            JOINT LeftFoot
            {
                OFFSET -0.000000 -62.821102 0.000000
                CHANNELS 3 Zrotation Xrotation Yrotation
                JOINT LeftToeBase
                {
                    OFFSET -0.000000 -11.507608 26.556021
                    CHANNELS 3 Zrotation Xrotation Yrotation
                    End Site
                    {
                        OFFSET -0.000000 0.000000 7.081605
                    }
                }
            }
        }
    }
    JOINT RightUpLeg
    {
        OFFSET -17.704014 0.000000 0.000000
        CHANNELS 3 Zrotation Xrotation Yrotation
        JOINT RightLeg
        {
            OFFSET -0.000000 -81.181816 0.000000
            CHANNELS 3 Zrotation Xrotation Yrotation
            JOINT RightFoot
            {
                OFFSET -0.000000 -62.821102 0.000000
                CHANNELS 3 Zrotation Xrotation Yrotation
                JOINT RightToeBase
                {
                    OFFSET -0.000000 -11.507608 26.556021
                    CHANNELS 3 Zrotation Xrotation Yrotation
                    End Site
                    {
                        OFFSET -0.000000 0.000000 7.081605
                    }
                }
            }
        }
    }
}
MOTION
Frames:    9
Frame Time:    0.008333
-15.313027    151.963394    -97.503738    2.417446    -4.125944    45.888840    -1.289932    -0.287518    -0.322776    -3.449353    2.389469    -0.036182    0.687390    5.363462    -20.383228    16.227295    -0.333975    -19.039585    3.624269    8.692039    -14.738681    -36.166279    21.842007    -48.065750    -3.670147    -23.252419    -121.149574    -7.504730    -28.412680    -11.869381    -8.138580    2.313814    -5.293249    20.551094    -9.254966    42.141972    -10.373055    5.062413    59.245792    -21.798445    3.901292    35.554531    16.897295    -3.505511    -6.724276    -17.903618    39.443172    -20.752928    6.180858    -31.542120    52.048901    0.000000    0.000000    0.000000    -23.333990    -16.627922    -24.824224    8.821359    28.235088    -15.868024    3.854740    3.667714    -8.386599    0.000000    0.000000    0.000000    
-15.310913    151.962418    -97.512695    2.416598    -4.125537    45.850132    -1.308330    -0.302233    -0.313147    -3.391677    2.398753    -0.033837    0.607708    5.386255    -20.389277    16.287745    -0.337653    -19.028797    3.576687    8.677281    -14.694886    -36.157970    21.868547    -48.065079    -3.679387    -23.264017    -121.143471    -7.472447    -28.441978    -11.843649    -7.958816    2.491519    -5.288884    20.840288    -8.984788    42.280243    -10.482821    4.749940    59.309940    -21.686567    3.736813    35.363480    16.893209    -3.492007    -6.702781    -17.907898    39.439960    -20.739252    6.180153    -31.555870    52.057526    0.000000    0.000000    0.000000    -23.327969    -16.647413    -24.799946    8.823019    28.228691    -15.863115    3.853585    3.684722    -8.394706    0.000000    0.000000    0.000000    
-15.313663    151.959335    -97.518288    2.413392    -4.126445    45.819221    -1.336189    -0.312314    -0.308195    -3.315427    2.406034    -0.033713    0.527172    5.405779    -20.392038    16.334560    -0.354712    -19.014494    3.535259    8.667517    -14.651388    -36.154591    21.877491    -48.097919    -3.603215    -23.301136    -121.097404    -6.854908    -28.414185    -11.751595    -7.784074    2.658056    -5.287871    21.190008    -8.865384    42.439838    -10.441426    4.638490    59.406021    -21.619341    3.669774    35.199501    16.896753    -3.486863    -6.696609    -17.925533    39.441582    -20.720922    6.196131    -31.547844    52.066940    0.000000    0.000000    0.000000    -23.318401    -16.663294    -24.791737    8.812394    28.226196    -15.855982    3.844269    3.690894    -8.371041    0.000000    0.000000    0.000000    
-15.310523    151.959793    -97.521782    2.416136    -4.134011    45.782803    -1.353313    -0.312186    -0.303774    -3.255758    2.405343    -0.033100    0.469228    5.426705    -20.403145    16.343277    -0.360759    -19.018145    3.499562    8.654877    -14.607560    -36.195843    21.882883    -48.052063    -3.688715    -23.244946    -121.144890    -7.421780    -28.445803    -11.792469    -7.606125    2.819782    -5.270934    21.436533    -8.568220    42.564163    -10.635000    4.401312    59.452106    -21.529234    3.598890    35.105370    16.896473    -3.465228    -6.675711    -17.925154    39.438324    -20.700825    6.187791    -31.556063    52.058456    0.000000    0.000000    0.000000    -23.308090    -16.671423    -24.767527    8.817182    28.219433    -15.857869    3.827593    3.702680    -8.361675    0.000000    0.000000    0.000000    
-15.312979    151.953781    -97.529411    2.409724    -4.130350    45.746704    -1.383288    -0.325291    -0.291914    -3.179219    2.406769    -0.030926    0.401057    5.444268    -20.404465    16.369591    -0.378564    -19.006386    3.462234    8.649697    -14.570241    -36.197903    21.870728    -48.081055    -3.629699    -23.249264    -121.108192    -6.814865    -28.413733    -11.698235    -7.408815    3.004928    -5.262496    21.678331    -8.390146    42.700390    -10.762700    4.303970    59.493473    -21.497612    3.590898    35.104538    16.898680    -3.463171    -6.652846    -17.933435    39.444023    -20.690845    6.182733    -31.571592    52.059246    0.000000    0.000000    0.000000    -23.297966    -16.695642    -24.775120    8.789729    28.220404    -15.830060    3.841544    3.703999    -8.329602    0.000000    0.000000    0.000000    
-15.309906    151.947479    -97.537354    2.412970    -4.135324    45.717213    -1.405237    -0.322909    -0.285882    -3.108656    2.408421    -0.030038    0.324012    5.471856    -20.419725    16.399902    -0.399328    -19.007397    3.431322    8.639893    -14.535889    -36.201912    21.891838    -48.077370    -3.632200    -23.263655    -121.124794    -6.770858    -28.438726    -11.669614    -7.224118    3.176048    -5.265326    21.941896    -8.222251    42.857349    -10.849758    4.265723    59.537395    -21.509638    3.616267    35.048454    16.896948    -3.454621    -6.642056    -17.946852    39.457081    -20.671745    6.189223    -31.578003    52.065506    0.000000    0.000000    0.000000    -23.296041    -16.706511    -24.759750    8.792041    28.225704    -15.820411    3.827566    3.708222    -8.326486    0.000000    0.000000    0.000000    
-15.307837    151.942032    -97.546867    2.411689    -4.142340    45.684017    -1.421315    -0.321398    -0.273900    -3.041040    2.408455    -0.027710    0.265903    5.502124    -20.429956    16.408298    -0.433202    -19.006241    3.412779    8.628266    -14.511992    -36.247234    21.905548    -48.033352    -3.720665    -23.227106    -121.185143    -7.392511    -28.488874    -11.747313    -7.049887    3.350569    -5.291712    21.853643    -7.345165    42.974724    -11.554639    3.431169    59.415520    -21.175303    3.315977    34.883358    16.899700    -3.446723    -6.628481    -17.960981    39.472210    -20.658287    6.200374    -31.586407    52.079945    0.000000    0.000000    0.000000    -23.288931    -16.717682    -24.732920    8.805882    28.221930    -15.822905    3.829494    3.717534    -8.327976    0.000000    0.000000    0.000000    
-15.302643    151.932816    -97.554436    2.417125    -4.146887    45.653805    -1.439757    -0.323749    -0.267772    -2.983207    2.421964    -0.026686    0.195625    5.519555    -20.439692    16.435070    -0.445637    -19.003880    3.401965    8.613708    -14.476075    -36.249584    21.916506    -48.057487    -3.663104    -23.259161    -121.166542    -6.796878    -28.486458    -11.645637    -6.892699    3.507762    -5.311660    22.169918    -7.254964    43.148117    -11.506549    3.540912    59.456974    -21.121344    3.441576    34.783298    16.895882    -3.433726    -6.615458    -17.969643    39.479771    -20.640551    6.214483    -31.596025    52.088291    0.000000    0.000000    0.000000    -23.294147    -16.727823    -24.727148    8.810972    28.234520    -15.784753    3.816636    3.717676    -8.337090    0.000000    0.000000    0.000000    
-15.301847    151.925873    -97.564400    2.415285    -4.150049    45.626682    -1.456448    -0.323479    -0.262918    -2.917200    2.421829    -0.026516    0.132766    5.538858    -20.456720    16.435995    -0.456010    -19.013870    3.373091    8.602547    -14.446292    -36.241753    21.942175    -48.047424    -3.665056    -23.270660    -121.179436    -6.809911    -28.500702    -11.648383    -6.734349    3.679391    -5.330349    22.492920    -7.234995    43.317650    -11.342587    3.726878    59.536167    -21.062941    3.583320    34.680119    16.898144    -3.431051    -6.614148    -17.994162    39.490234    -20.608427    6.224762    -31.607225    52.088852    0.000000    0.000000    0.000000    -23.290792    -16.739822    -24.712370    8.820096    28.231953    -15.782460    3.819200    3.716196    -8.346906    0.000000    0.000000    0.000000    
